Coordinates
version=1
nRows=9
nColumns=24
inDegrees=yes

Units are S.I. units (second, meters, Newtons, ...)
Angles are in degrees.

endheader
time	pelvis_tilt	pelvis_list	pelvis_rotation	pelvis_tx	pelvis_ty	pelvis_tz	hip_flexion_r	hip_adduction_r	hip_rotation_r	knee_angle_r	ankle_angle_r	subtalar_angle_r	mtp_angle_r	hip_flexion_l	hip_adduction_l	hip_rotation_l	knee_angle_l	ankle_angle_l	subtalar_angle_l	mtp_angle_l	lumbar_extension	lumbar_bending	lumbar_rotation
      5.03500000	     13.58866320	      4.44153493	      6.24931445	      0.49097739	      0.94289218	     -0.29591574	     -2.06535059	     -6.83474642	    -11.27174151	    -64.54904238	     14.61248217	     -8.04039608	      0.00000000	    -13.30270350	      6.56714071	     17.93879657	     -9.57611870	     16.49187280	     -5.15265728	      0.00000000	    -27.21447755	     -3.18723058	     -5.42016107
      5.04000000	     13.59877900	      4.16744115	      6.49696793	      0.49695743	      0.94337754	     -0.29608856	     -1.31570979	     -6.54317446	    -11.45779284	    -64.09123620	     15.35131268	     -7.74614288	      0.00000000	    -13.87883566	      6.09819222	     17.99189448	     -9.13946510	     16.58942132	     -4.99602591	      0.00000000	    -27.20779944	     -2.76601691	     -5.68573191
      5.04500000	     13.68782700	      3.94022832	      6.94578193	      0.50296110	      0.94391339	     -0.29646556	     -0.74635356	     -6.29493072	    -11.89073922	    -63.50038195	     16.04324898	     -7.51431469	      0.00000000	    -14.53689398	      5.60989936	     18.17615442	     -8.72522234	     16.75693804	     -4.68664653	      0.00000000	    -27.28926789	     -2.29321895	     -6.21828107
      5.05000000	     13.74864528	      3.70324464	      7.28331002	      0.50894801	      0.94434251	     -0.29671865	     -0.12355353	     -6.04158876	    -12.18638121	    -62.86202624	     16.71470256	     -7.21432743	      0.00000000	    -15.16111476	      5.13974398	     18.27844246	     -8.29841477	     16.88444756	     -4.47106275	      0.00000000	    -27.33886084	     -1.86551701	     -6.59126515
      5.05500000	     13.79342098	      3.47616626	      7.60811848	      0.51491218	      0.94468973	     -0.29694181	      0.50478786	     -5.80182118	    -12.46369077	    -62.15598616	     17.35680245	     -6.91443104	      0.00000000	    -15.75866460	      4.68200324	     18.35628073	     -7.88258015	     17.00686638	     -4.25259173	      0.00000000	    -27.37584032	     -1.45639966	     -6.94698904
      5.06000000	     13.77964018	      3.25558687	      7.82960551	      0.52090406	      0.94489650	     -0.29703837	      1.21068689	     -5.57592379	    -12.61358469	    -61.41056867	     17.95980903	     -6.56164417	      0.00000000	    -16.29962574	      4.26590092	     18.37133587	     -7.45145701	     17.10123957	     -4.12391685	      0.00000000	    -27.34093634	     -1.11581744	     -7.18415382
      5.06500000	     13.87468938	      3.06636807	      8.25545911	      0.52685406	      0.94519577	     -0.29732455	      1.70659615	     -5.37154778	    -13.00215057	    -60.52500264	     18.53102850	     -6.30408409	      0.00000000	    -16.93516434	      3.80124979	     18.49510071	     -7.06262858	     17.25206385	     -3.82085262	      0.00000000	    -27.43954236	     -0.69598425	     -7.66534403
      5.07000000	     13.84680837	      2.87808156	      8.44389365	      0.53280844	      0.94525558	     -0.29740457	      2.39563706	     -5.18745480	    -13.10545826	    -59.64821928	     19.08783180	     -5.93302877	      0.00000000	    -17.45141978	      3.43233239	     18.47399664	     -6.64875008	     17.31543018	     -3.72897392	      0.00000000	    -27.40011095	     -0.38971427	     -7.86842434
      5.07500000	     13.94459328	      2.70340026	      8.85931746	      0.53872738	      0.94543755	     -0.29761181	      2.84788396	     -4.99102146	    -13.45531824	    -58.61282612	     19.61398513	     -5.66259103	      0.00000000	    -18.06848470	      2.97674815	     18.56785201	     -6.29176320	     17.48655476	     -3.42427448	      0.00000000	    -27.51178193	     -0.00836375	     -8.30808076
